<?xml version="1.0" encoding="UTF-8" standalone="no"?>
<svg
   xmlns:dc="http://purl.org/dc/elements/1.1/"
   xmlns:cc="http://creativecommons.org/ns#"
   xmlns:rdf="http://www.w3.org/1999/02/22-rdf-syntax-ns#"
   xmlns:svg="http://www.w3.org/2000/svg"
   xmlns="http://www.w3.org/2000/svg"
   version="1.1"
   viewBox="0 0 16 16"
   id="totu">
  <metadata
     id="metadata11">
    <rdf:RDF>
      <cc:Work
         rdf:about="">
        <dc:format>image/svg+xml</dc:format>
        <dc:type
           rdf:resource="http://purl.org/dc/dcmitype/StillImage" />
        <dc:title></dc:title>
      </cc:Work>
    </rdf:RDF>
  </metadata>
  <defs
     id="defs9" />
  <circle
     style="fill:#ffffff;stroke:#000000;stroke-width:0.65649718"
     r="4.5954804"
     id="circle3"
     cy="8"
     cx="8" />
  <circle
     style="fill:#ffffff;stroke:#000000;stroke-width:0.65649718"
     r="2.6259887"
     id="circle5"
     cy="8"
     cx="8" />
  <rect
     y="13.084745"
     x="8.474576"
     height="2.5084746"
     width="7.4576273"
     id="rect4205"
     style="fill:#ffffff;stroke:#000000;stroke-opacity:0;fill-opacity:1" />
  <g
     id="flowRoot4139"
     style="font-style:normal;font-variant:normal;font-weight:normal;font-stretch:normal;font-size:1.25px;line-height:125%;font-family:'ヒラギノ角ゴシック';-inkscape-font-specification:'ヒラギノ角ゴシック';letter-spacing:0px;word-spacing:0px;fill:#000000;fill-opacity:1;stroke:none;stroke-width:1px;stroke-linecap:butt;stroke-linejoin:miter;stroke-opacity:1"
     transform="translate(7.864407,13.016949)">
    <path
       id="path4167"
       style="font-size:2.5px"
       d="m 0.99460937,0.44817708 0.58750003,0 c 0.125,0 0.2075,0.005 0.3075,0.02 l 0,-0.2425 c -0.1025,0.015 -0.1625,0.02 -0.31,0.02 l -0.54,0 c -0.14250002,0 -0.19250002,-0.0025 -0.26750002,-0.0125 0.005,0.0775 0.005,0.08 0.005,0.0875 0,0.07 0,0.0875 -0.01,0.17 l -0.055,0.58000002 c -0.0075,0.1 -0.015,0.1475 -0.035,0.26 l 0.2225,0.02 c 0.0225,-0.0525 0.035,-0.0725 0.0675,-0.105 0.0875,-0.09 0.21500003,-0.1425 0.34000003,-0.1425 0.2775,0 0.4425,0.165 0.4425,0.44 0,0.2775 -0.18,0.46 -0.4525,0.46 -0.14,0 -0.26,-0.05 -0.34000003,-0.14 -0.035,-0.0425 -0.0525,-0.075 -0.0775,-0.1475 l -0.24499999,0.065 c 0.0575,0.125 0.0925,0.18 0.15749999,0.245 0.125,0.1225 0.29250003,0.185 0.50250003,0.185 0.4275,0 0.6975,-0.2625 0.6975,-0.6775 0,-0.3775 -0.25,-0.62500002 -0.63,-0.62500002 -0.1725,0 -0.3125,0.055 -0.43500003,0.17000002 0.015,-0.07 0.015,-0.07 0.0175,-0.11250002 l 0.05,-0.5175 z" />
    <path
       id="path4169"
       style="font-size:2.5px"
       d="m 2.9966797,2.2081771 c 0.24,0 0.425,-0.09 0.555,-0.27 0.11,-0.155 0.1775,-0.4275 0.1775,-0.7275 0,-0.21 -0.0325,-0.40500002 -0.0975,-0.58000002 -0.03,-0.0825 -0.0825,-0.165 -0.1525,-0.235 -0.1175,-0.12 -0.285,-0.185 -0.4775,-0.185 -0.2575,0 -0.4575,0.11 -0.5825,0.32 -0.09,0.145 -0.1475,0.415 -0.1475,0.68250002 0,0.2025 0.0325,0.4 0.0975,0.575 0.03,0.085 0.0825,0.165 0.1525,0.235 0.1225,0.1225 0.2825,0.185 0.475,0.185 z m 0,-1.79250002 c 0.175,0 0.3025,0.075 0.3825,0.225 0.0625,0.115 0.1075,0.355 0.1075,0.56750002 0,0.175 -0.0225,0.3325 -0.0725,0.4825 -0.0225,0.075 -0.065,0.1425 -0.1175,0.1975 -0.0725,0.075 -0.1775,0.115 -0.2975,0.115 -0.1625,0 -0.2875,-0.07 -0.3725,-0.21 -0.0675,-0.1125 -0.115,-0.3525 -0.115,-0.5775 0,-0.1775 0.025,-0.34250002 0.0725,-0.48750002 0.02,-0.065 0.0575,-0.1275 0.11,-0.185 0.0775,-0.0875 0.175,-0.1275 0.3025,-0.1275 z" />
    <path
       id="path4171"
       style="font-size:2.5px"
       d="m 4.68125,2.2081771 c 0.24,0 0.425,-0.09 0.555,-0.27 0.11,-0.155 0.1775,-0.4275 0.1775,-0.7275 0,-0.21 -0.0325,-0.40500002 -0.0975,-0.58000002 -0.03,-0.0825 -0.0825,-0.165 -0.1525,-0.235 -0.1175,-0.12 -0.285,-0.185 -0.4775,-0.185 -0.2575,0 -0.4575,0.11 -0.5825,0.32 -0.09,0.145 -0.1475,0.415 -0.1475,0.68250002 0,0.2025 0.0325,0.4 0.0975,0.575 0.03,0.085 0.0825,0.165 0.1525,0.235 0.1225,0.1225 0.2825,0.185 0.475,0.185 z m 0,-1.79250002 c 0.175,0 0.3025,0.075 0.3825,0.225 0.0625,0.115 0.1075,0.355 0.1075,0.56750002 0,0.175 -0.0225,0.3325 -0.0725,0.4825 -0.0225,0.075 -0.065,0.1425 -0.1175,0.1975 -0.0725,0.075 -0.1775,0.115 -0.2975,0.115 -0.1625,0 -0.2875,-0.07 -0.3725,-0.21 -0.0675,-0.1125 -0.115,-0.3525 -0.115,-0.5775 0,-0.1775 0.025,-0.34250002 0.0725,-0.48750002 0.02,-0.065 0.0575,-0.1275 0.11,-0.185 0.0775,-0.0875 0.175,-0.1275 0.3025,-0.1275 z" />
    <path
       id="path4173"
       style="font-size:2.5px"
       d="m 6.6933203,0.24567708 c -0.005,0.0575 -0.0275,0.1525 -0.055,0.2475 l -0.3225,1.07250002 c -0.0125,0.0375 -0.0525,0.2075 -0.07,0.3 -0.025,-0.13 -0.0525,-0.26 -0.065,-0.3075 l -0.2775,-1.05000002 c -0.0275,-0.1025 -0.0425,-0.185 -0.0475,-0.2625 l -0.295,0 c 0.0375,0.0825 0.06,0.1475 0.1,0.2875 l 0.3975,1.38750002 c 0.0575,0.2 0.0575,0.2 0.0675,0.2525 l 0.2325,0 c 0.01,-0.0625 0.025,-0.1175 0.0625,-0.245 l 0.31,-1.03750002 c 0.02,-0.0675 0.0475,-0.1725 0.075,-0.2975 0.02,0.105 0.0425,0.1975 0.0725,0.2975 l 0.3125,1.03750002 c 0.0275,0.085 0.055,0.195 0.0625,0.245 l 0.235,0 c 0.01,-0.0525 0.01,-0.0525 0.065,-0.2525 l 0.3975,-1.38750002 c 0.04,-0.1425 0.06,-0.2 0.0975,-0.2875 l -0.2925,0 c -0.0025,0.07 -0.02,0.165 -0.045,0.2625 l -0.2775,1.04750002 c -0.0075,0.025 -0.03,0.1275 -0.065,0.31 -0.0425,-0.1875 -0.0625,-0.2725 -0.075,-0.315 l -0.32,-1.05750002 c -0.0275,-0.095 -0.0475,-0.18 -0.0575,-0.2475 l -0.2225,0 z" />
  </g>
</svg>
