<?xml version="1.0" encoding="UTF-8" standalone="no"?>
<svg
   xmlns:dc="http://purl.org/dc/elements/1.1/"
   xmlns:cc="http://creativecommons.org/ns#"
   xmlns:rdf="http://www.w3.org/1999/02/22-rdf-syntax-ns#"
   xmlns:svg="http://www.w3.org/2000/svg"
   xmlns="http://www.w3.org/2000/svg"
   xmlns:sodipodi="http://sodipodi.sourceforge.net/DTD/sodipodi-0.dtd"
   xmlns:inkscape="http://www.inkscape.org/namespaces/inkscape"
   id="totu"
   viewBox="0 0 16 16"
   version="1.1"
   inkscape:version="0.91 r13725"
   sodipodi:docname="totu500.svg"
   inkscape:export-filename="/Users/magcho/Documents/git/LbtMaker/resource/img/totu500.png"
   inkscape:export-xdpi="3963.3601"
   inkscape:export-ydpi="3963.3601">
  <metadata
     id="metadata9">
    <rdf:RDF>
      <cc:Work
         rdf:about="">
        <dc:format>image/svg+xml</dc:format>
        <dc:type
           rdf:resource="http://purl.org/dc/dcmitype/StillImage" />
        <dc:title />
      </cc:Work>
    </rdf:RDF>
  </metadata>
  <defs
     id="defs7" />
  <sodipodi:namedview
     pagecolor="#ffffff"
     bordercolor="#666666"
     borderopacity="1"
     objecttolerance="10"
     gridtolerance="10"
     guidetolerance="10"
     inkscape:pageopacity="0"
     inkscape:pageshadow="2"
     inkscape:window-width="1440"
     inkscape:window-height="845"
     id="namedview5"
     showgrid="false"
     inkscape:zoom="29.5"
     inkscape:cx="8.8616968"
     inkscape:cy="6.9767212"
     inkscape:window-x="38"
     inkscape:window-y="34"
     inkscape:window-maximized="0"
     inkscape:current-layer="totu" />
  <circle
     cx="8"
     cy="8"
     id="circle3"
     style="fill:#ffffff;stroke:#000000;stroke-width:0.65646666"
     r="4.5952668" />
  <rect
     style="fill:#ffffff;fill-opacity:1;stroke:#000000;stroke-width:1.40193307;stroke-opacity:0"
     id="rect4149"
     width="11.157389"
     height="3.0556939"
     x="4.8450351"
     y="12.946729" />
  <g
     transform="matrix(1.4837373,0,0,1.5,3.9311341,12.997202)"
     style="font-style:normal;font-weight:normal;font-size:1.25px;line-height:125%;font-family:sans-serif;letter-spacing:0px;word-spacing:0px;fill:#000000;fill-opacity:1;stroke:none;stroke-width:1px;stroke-linecap:butt;stroke-linejoin:miter;stroke-opacity:1"
     id="flowRoot4137"
     inkscape:export-filename="/Users/magcho/Documents/git/LbtMaker/resource/img/totu500.png"
     inkscape:export-xdpi="3963.3601"
     inkscape:export-ydpi="3963.3601">
    <path
       d="m 1.0629687,0.24309896 0.5875,0 c 0.125,0 0.2075,0.005 0.3075,0.02 l 0,-0.2425 c -0.1025,0.015 -0.1625,0.02 -0.31,0.02 l -0.54,0 c -0.14249995,0 -0.19249995,-0.0025 -0.26749995,-0.0125 0.005,0.0775 0.005,0.08 0.005,0.0875 0,0.07 0,0.0875 -0.01,0.17 l -0.055,0.58 c -0.0075,0.1 -0.015,0.14750004 -0.035,0.26000004 l 0.2225,0.02 c 0.0225,-0.0525 0.0350001,-0.0725 0.0675001,-0.105 0.0875,-0.09 0.2149999,-0.14250004 0.3399999,-0.14250004 0.2775001,0 0.4425,0.16500004 0.4425,0.44000004 0,0.2775 -0.18,0.46 -0.4525,0.46 -0.1399999,0 -0.26,-0.05 -0.34,-0.14 -0.0350008,-0.0425 -0.0525007,-0.075 -0.0775007,-0.1475 l -0.245,0.065 c 0.0575,0.125 0.0925,0.18 0.1575,0.245 0.125,0.1225 0.29249995,0.185 0.50249995,0.185 0.4275001,0 0.6975001,-0.2625 0.6975001,-0.6775 0,-0.37750004 -0.2500001,-0.62500004 -0.6300001,-0.62500004 -0.1725,0 -0.3124999,0.055 -0.43499995,0.17 0.0150003,-0.07 0.0150003,-0.07 0.0175003,-0.1125 l 0.05,-0.5175 z"
       style="font-style:normal;font-variant:normal;font-weight:normal;font-stretch:normal;font-size:2.5px;font-family:'ヒラギノ角ゴシック';-inkscape-font-specification:'ヒラギノ角ゴシック'"
       id="path4171"
       inkscape:connector-curvature="0" />
    <path
       d="m 3.0650391,2.003099 c 0.24,0 0.425,-0.09 0.555,-0.27 0.11,-0.155 0.1775,-0.4275 0.1775,-0.7275 0,-0.21000004 -0.0325,-0.40500004 -0.0975,-0.58000004 -0.03,-0.0825 -0.0825,-0.165 -0.1525,-0.235 -0.1175,-0.12 -0.285,-0.185 -0.4775,-0.185 -0.2575,0 -0.4575,0.11 -0.5825,0.32 -0.09,0.145 -0.1475,0.415 -0.1475,0.68250004 0,0.2025 0.0325,0.4 0.0975,0.575 0.03,0.085 0.0825,0.165 0.1525,0.235 0.1225,0.1225 0.2825,0.185 0.475,0.185 z m 0,-1.79250004 c 0.175,0 0.3025,0.075 0.3825,0.225 0.0625,0.115 0.1075,0.355 0.1075,0.56750004 0,0.175 -0.0225,0.3325 -0.0725,0.4825 -0.0225,0.075 -0.065,0.1425 -0.1175,0.1975 -0.0725,0.075 -0.1775,0.115 -0.2975,0.115 -0.1625,0 -0.2875,-0.07 -0.3725,-0.21 -0.0675,-0.1125 -0.115,-0.3525 -0.115,-0.5775 0,-0.17750004 0.025,-0.34250004 0.0725,-0.48750004 0.02,-0.065 0.0575,-0.1275 0.11,-0.185 0.0775,-0.0875 0.175,-0.1275 0.3025,-0.1275 z"
       style="font-style:normal;font-variant:normal;font-weight:normal;font-stretch:normal;font-size:2.5px;font-family:'ヒラギノ角ゴシック';-inkscape-font-specification:'ヒラギノ角ゴシック'"
       id="path4173"
       inkscape:connector-curvature="0" />
    <path
       d="m 4.7496094,2.003099 c 0.24,0 0.425,-0.09 0.555,-0.27 0.11,-0.155 0.1775,-0.4275 0.1775,-0.7275 0,-0.21000004 -0.0325,-0.40500004 -0.0975,-0.58000004 -0.03,-0.0825 -0.0825,-0.165 -0.1525,-0.235 -0.1175,-0.12 -0.285,-0.185 -0.4775,-0.185 -0.2575,0 -0.4575,0.11 -0.5825,0.32 -0.09,0.145 -0.1475,0.415 -0.1475,0.68250004 0,0.2025 0.0325,0.4 0.0975,0.575 0.03,0.085 0.0825,0.165 0.1525,0.235 0.1225,0.1225 0.2825,0.185 0.475,0.185 z m 0,-1.79250004 c 0.175,0 0.3025,0.075 0.3825,0.225 0.0625,0.115 0.1075,0.355 0.1075,0.56750004 0,0.175 -0.0225,0.3325 -0.0725,0.4825 -0.0225,0.075 -0.065,0.1425 -0.1175,0.1975 -0.0725,0.075 -0.1775,0.115 -0.2975,0.115 -0.1625,0 -0.2875,-0.07 -0.3725,-0.21 -0.0675,-0.1125 -0.115,-0.3525 -0.115,-0.5775 0,-0.17750004 0.025,-0.34250004 0.0725,-0.48750004 0.02,-0.065 0.0575,-0.1275 0.11,-0.185 0.0775,-0.0875 0.175,-0.1275 0.3025,-0.1275 z"
       style="font-style:normal;font-variant:normal;font-weight:normal;font-stretch:normal;font-size:2.5px;font-family:'ヒラギノ角ゴシック';-inkscape-font-specification:'ヒラギノ角ゴシック'"
       id="path4175"
       inkscape:connector-curvature="0" />
    <path
       d="m 6.7616797,0.04059896 c -0.005,0.0575 -0.0275,0.1525 -0.055,0.2475 l -0.3225,1.07250004 c -0.0125,0.0375 -0.0525,0.2075 -0.07,0.3 -0.025,-0.13 -0.0525,-0.26 -0.065,-0.3075 l -0.2775,-1.05000004 c -0.0275,-0.1025 -0.0425,-0.185 -0.0475,-0.2625 l -0.295,0 c 0.0375,0.0825 0.06,0.1475 0.1,0.2875 l 0.3975,1.38750004 c 0.0575,0.2 0.0575,0.2 0.0675,0.2525 l 0.2325,0 c 0.01,-0.0625 0.025,-0.1175 0.0625,-0.245 l 0.31,-1.03750004 c 0.02,-0.0675 0.0475,-0.1725 0.075,-0.2975 0.02,0.105 0.0425,0.1975 0.0725,0.2975 l 0.3125,1.03750004 c 0.0275,0.085 0.055,0.195 0.0625,0.245 l 0.235,0 c 0.01,-0.0525 0.01,-0.0525 0.065,-0.2525 l 0.3975,-1.38750004 c 0.04,-0.1425 0.06,-0.2 0.0975,-0.2875 l -0.2925,0 c -0.0025,0.07 -0.02,0.165 -0.045,0.2625 l -0.2775,1.04750004 c -0.0075,0.025 -0.03,0.1275 -0.065,0.31 -0.0425,-0.1875 -0.0625,-0.2725 -0.075,-0.315 l -0.32,-1.05750004 c -0.0275,-0.095 -0.0475,-0.18 -0.0575,-0.2475 l -0.2225,0 z"
       style="font-style:normal;font-variant:normal;font-weight:normal;font-stretch:normal;font-size:2.5px;font-family:'ヒラギノ角ゴシック';-inkscape-font-specification:'ヒラギノ角ゴシック'"
       id="path4177"
       inkscape:connector-curvature="0" />
  </g>
  <circle
     style="fill:#ffffff;fill-opacity:1;stroke:#000000;stroke-width:0.64905947;stroke-linecap:square;stroke-linejoin:miter;stroke-miterlimit:4;stroke-dasharray:none;stroke-opacity:1"
     id="path4141"
     cx="8"
     cy="1.8305085"
     r="0.34496179"
     inkscape:export-filename="/Users/magcho/Documents/git/LbtMaker/resource/img/totu500.png"
     inkscape:export-xdpi="3963.3601"
     inkscape:export-ydpi="3963.3601" />
</svg>
